<?xml version="1.0" encoding="utf-8"?>
<?xml-stylesheet type="text/xsl" href="rss1.xsl"?>
<rss version="2.0" xmlns:atom="http://www.w3.org/2005/Atom" xmlns:content="http://purl.org/rss/1.0/modules/content/" xmlns:dc="http://purl.org/dc/elements/1.1/" xmlns:media="http://search.yahoo.com/mrss/">
<channel>
 <title>Getty</title>
 <link>http://www.gettyimg.com/</link>
 <atom:link href="http://www.gettyimg.com/" rel="self" type="application/rss+xml" />

 
                <item>
                <title><![CDATA[【Cinema Center】MOVIE - I.Fantastici.4.2005.ITA-ENG.BDRip.720p.x264-HD4ME]]></title>
                <link><![CDATA[https://sharemania.us/threads/i-fantastici-4-2005-ita-eng-bdrip-720p-x264-hd4me.233498/]]></link>
                <description><![CDATA[<article>
<blockquote class="messageText SelectQuoteContainer ugc baseHtml">
<b>Release Name</b><br>
I.Fantastici.4.2005.ITA-ENG.BDRip.720p.x264-HD4ME<br>
<br>
<div class="bbCodeBlock bbCodeCode">
<div class="type">Code:</div>
<pre>General
Unique ID                                : 240661163349367983883227076221315933228 (0xB50DA772BDBE765AA5F674BDD1C5642C)
Complete name                            : I.Fantastici.4.2005.ITA-ENG.BDRip.720p.x264-HD4ME.mkv
Format                                   : Matroska
Format version                           : Version 1
File size                                : 1.83 GiB
Duration                                 : 1 h 45 min
Overall bit rate                         : 2 478 kb/s
Frame rate                               : 23.976 FPS
Movie name                               : I Fantastici 4
Encoded date                             : 2019-01-25 23:01:50 UTC
Writing application                      : mkvmerge v18.0.0 ('Apricity') 64-bit
Writing library                          : libebml v1.3.5 + libmatroska v1.4.8

Video
ID                                       : 1
Format                                   : AVC
Format/Info                              : Advanced Video Codec
Format profile                           : High@L4.1
Format settings                          : CABAC / 9 Ref Frames
Format settings, CABAC                   : Yes
Format settings, Reference frames        : 9 frames
Codec ID                                 : V_MPEG4/ISO/AVC
Duration                                 : 1 h 45 min
Bit rate                                 : 2 021 kb/s
Width                                    : 1 280 pixels
Height                                   : 544 pixels
Display aspect ratio                     : 2.35:1
Frame rate mode                          : Constant
Frame rate                               : 23.976 (24000/1001) FPS
Color space                              : YUV
Chroma subsampling                       : 4:2:0
Bit depth                                : 8 bits
Scan type                                : Progressive
Bits/(Pixel*Frame)                       : 0.121
Stream size                              : 1.49 GiB (82%)
Writing library                          : x264 core 157 r2935 545de2f
Encoding settings                        : cabac=1 / ref=9 / deblock=1:-2:-2 / analyse=0x3:0x133 / me=umh / subme=10 / psy=1 / psy_rd=1.00:0.15 / mixed_ref=1 / me_range=48 / chroma_me=1 / trellis=2 / 8x8dct=1 / cqm=0 / deadzone=21,11 / fast_pskip=1 / chroma_qp_offset=-3 / threads=12 / lookahead_threads=3 / sliced_threads=0 / nr=0 / decimate=1 / interlaced=0 / bluray_compat=0 / constrained_intra=0 / bframes=12 / b_pyramid=2 / b_adapt=2 / b_bias=0 / direct=3 / weightb=1 / open_gop=0 / weightp=2 / keyint=240 / keyint_min=24 / scenecut=40 / intra_refresh=0 / rc_lookahead=40 / rc=2pass / mbtree=1 / bitrate=2021 / ratetol=1.0 / qcomp=0.60 / qpmin=0 / qpmax=69 / qpstep=4 / cplxblur=20.0 / qblur=0.5 / vbv_maxrate=62500 / vbv_bufsize=78125 / nal_hrd=none / filler=0 / ip_ratio=1.40 / aq=1:1.00
Language                                 : English
Default                                  : Yes
Forced                                   : No
Color range                              : Limited
Color primaries                          : BT.709
Transfer characteristics                 : BT.709
Matrix coefficients                      : BT.709

Audio #1
ID                                       : 2
Format                                   : AAC LC
Format/Info                              : Advanced Audio Codec Low Complexity
Codec ID                                 : 2 / A_AAC-2
Duration                                 : 1 h 45 min
Bit rate                                 : 224 kb/s
Channel(s)                               : 6 channels
Channel layout                           : C L R Ls Rs LFE
Sampling rate                            : 48.0 kHz
Frame rate                               : 46.875 FPS (1024 SPF)
Compression mode                         : Lossy
Stream size                              : 169 MiB (9%)
Title                                    : ITA AAC 5.1 224 kbps
Language                                 : Italian
Default                                  : Yes
Forced                                   : No

Audio #2
ID                                       : 3
Format                                   : AAC LC
Format/Info                              : Advanced Audio Codec Low Complexity
Codec ID                                 : 2 / A_AAC-2
Duration                                 : 1 h 45 min
Bit rate                                 : 224 kb/s
Channel(s)                               : 6 channels
Channel layout                           : C L R Ls Rs LFE
Sampling rate                            : 48.0 kHz
Frame rate                               : 46.875 FPS (1024 SPF)
Compression mode                         : Lossy
Stream size                              : 169 MiB (9%)
Title                                    : ENG AAC 5.1 224 kbps
Language                                 : English
Default                                  : No
Forced                                   : No

Text #1
ID                                       : 4
Format                                   : UTF-8
Codec ID                                 : S_TEXT/UTF8
Codec ID/Info                            : UTF-8 Plain Text
Duration                                 : 1 h 33 min
Bit rate                                 : 1 b/s
Frame rate                               : 0.007 FPS
Count of elements                        : 39
Stream size                              : 1 012 Bytes (0%)
Title                                    : Italian Forced
Language                                 : Italian
Default                                  : Yes
Forced                                   : No

Text #2
ID                                       : 5
Format                                   : UTF-8
Codec ID                                 : S_TEXT/UTF8
Codec ID/Info                            : UTF-8 Plain Text
Duration                                 : 1 h 36 min
Bit rate                                 : 52 b/s
Frame rate                               : 0.195 FPS
Count of elements                        : 1127
Stream size                              : 37.2 KiB (0%)
Title                                    : Italian Regular
Language                                 : Italian
Default                                  : No
Forced                                   : No

Text #3
ID                                       : 6
Format                                   : UTF-8
Codec ID                                 : S_TEXT/UTF8
Codec ID/Info                            : UTF-8 Plain Text
Duration                                 : 1 h 36 min
Bit rate                                 : 53 b/s
Frame rate                               : 0.190 FPS
Count of elements                        : 1097
Stream size                              : 37.9 KiB (0%)
Title                                    : English Regular
Language                                 : English
Default                                  : No
Forced                                   : No

Menu
00:00:00.000                             : en:Chapter 1
00:05:06.848                             : en:Chapter 2
00:07:58.978                             : en:Chapter 3
00:10:36.677                             : en:Chapter 4
00:14:36.876                             : en:Chapter 5
00:17:15.242                             : en:Chapter 6
00:19:21.034                             : en:Chapter 7
00:21:26.576                             : en:Chapter 8
00:28:20.865                             : en:Chapter 9
00:30:52.141                             : en:Chapter 10
00:39:41.379                             : en:Chapter 11
00:42:50.818                             : en:Chapter 12
00:45:38.569                             : en:Chapter 13
00:48:12.806                             : en:Chapter 14
00:51:52.275                             : en:Chapter 15
00:54:54.124                             : en:Chapter 16
00:57:16.433                             : en:Chapter 17
00:59:21.474                             : en:Chapter 18
01:02:58.441                             : en:Chapter 19
01:06:29.986                             : en:Chapter 20
01:09:57.359                             : en:Chapter 21
01:11:33.956                             : en:Chapter 22
01:15:45.374                             : en:Chapter 23
01:17:27.559                             : en:Chapter 24
01:21:16.830                             : en:Chapter 25
01:24:12.672                             : en:Chapter 26
01:26:25.513                             : en:Chapter 27
01:27:49.597                             : en:Chapter 28
01:30:20.832                             : en:Chapter 29
01:34:17.652                             : en:Chapter 30
01:37:00.439                             : en:Chapter 31
01:37:55.911                             : en:Chapter 32
</pre>
</div>
<div class="messageTextEndMarker">&nbsp;</div>
</blockquote>
</article>]]></description>
                <author><![CDATA[Austin Zimmermann]]></author>
                </item>

                
                <item>
                <title><![CDATA[【Requests】[REQ AUD] - Matilda The Musical European Portuguese/Indonesian/Persian/Malay/Sinhala]]></title>
                <link><![CDATA[https://sharemania.us/threads/matilda-the-musical-european-portuguese-indonesian-persian-malay-sinhala.233499/]]></link>
                <description><![CDATA[<article>
<blockquote class="messageText SelectQuoteContainer ugc baseHtml">
I have the video and most of the known available dubs, the only ones I am missing are<br>
European Portuguese<br>
Indonesian <br>
Persian<br>
Malay<br>
Sinhala<br>
<br>
I know a lot of these are a bit more specific and will properly only be available in certain regions, so if anyone has these avaliable and can get any of them that would be a big help, I would like to complete my dub collection for this film. From Netflix would be best as that is where my other ones are from but I don't mind if they are from a different source.<br>
<br>
Thank you!
<div class="messageTextEndMarker">&nbsp;</div>
</blockquote>
</article>]]></description>
                <author><![CDATA[ChraveLover]]></author>
                </item>

                
                <item>
                <title><![CDATA[【Cinema Center】MOVIE - Star.Wars.Episodio.III.La.vendetta.dei.Sith.2005.ITA-ENG.BDRip.720p.x264-HD4ME]]></title>
                <link><![CDATA[https://sharemania.us/threads/star-wars-episodio-iii-la-vendetta-dei-sith-2005-ita-eng-bdrip-720p-x264-hd4me.233497/]]></link>
                <description><![CDATA[<article>
<blockquote class="messageText SelectQuoteContainer ugc baseHtml">
<b>Release Name</b><br>
Star.Wars.Episodio.III.La.vendetta.dei.Sith.2005.ITA-ENG.BDRip.720p.x264-HD4ME<br>
<br>
<div class="bbCodeBlock bbCodeCode">
<div class="type">Code:</div>
<pre>General
Unique ID                                : 25666344724902337389078234455751218056 (0x134F287EEF35E2D2B0E31F2981D35388)
Complete name                            : Star.Wars.Episodio.III.La.vendetta.dei.Sith.2005.ITA-ENG.BDRip.720p.x264-HD4ME.mkv
Format                                   : Matroska
Format version                           : Version 4
File size                                : 2.59 GiB
Duration                                 : 2 h 20 min
Overall bit rate                         : 2 651 kb/s
Frame rate                               : 23.976 FPS
Movie name                               : Star Wars: Episodio III – La vendetta dei Sith
Encoded date                             : 2020-01-14 03:16:44 UTC
Writing application                      : mkvmerge v38.0.0 ('The Silent Type') 64-bit
Writing library                          : libebml v1.3.9 + libmatroska v1.5.2

Video
ID                                       : 1
Format                                   : AVC
Format/Info                              : Advanced Video Codec
Format profile                           : High@L4.1
Format settings                          : CABAC / 9 Ref Frames
Format settings, CABAC                   : Yes
Format settings, Reference frames        : 9 frames
Codec ID                                 : V_MPEG4/ISO/AVC
Duration                                 : 2 h 20 min
Bit rate                                 : 2 200 kb/s
Width                                    : 1 280 pixels
Height                                   : 544 pixels
Display aspect ratio                     : 2.35:1
Frame rate mode                          : Constant
Frame rate                               : 23.976 (24000/1001) FPS
Color space                              : YUV
Chroma subsampling                       : 4:2:0
Bit depth                                : 8 bits
Scan type                                : Progressive
Bits/(Pixel*Frame)                       : 0.132
Stream size                              : 2.15 GiB (83%)
Writing library                          : x264 core 157 r2935 545de2f
Encoding settings                        : cabac=1 / ref=9 / deblock=1:-2:-2 / analyse=0x3:0x133 / me=umh / subme=10 / psy=1 / psy_rd=1.00:0.15 / mixed_ref=1 / me_range=48 / chroma_me=1 / trellis=2 / 8x8dct=1 / cqm=0 / deadzone=21,11 / fast_pskip=1 / chroma_qp_offset=-3 / threads=6 / lookahead_threads=1 / sliced_threads=0 / nr=0 / decimate=1 / interlaced=0 / bluray_compat=0 / constrained_intra=0 / bframes=12 / b_pyramid=2 / b_adapt=2 / b_bias=0 / direct=3 / weightb=1 / open_gop=0 / weightp=2 / keyint=240 / keyint_min=24 / scenecut=40 / intra_refresh=0 / rc_lookahead=30 / rc=2pass / mbtree=1 / bitrate=2200 / ratetol=1.0 / qcomp=0.60 / qpmin=0 / qpmax=69 / qpstep=4 / cplxblur=20.0 / qblur=0.5 / vbv_maxrate=62500 / vbv_bufsize=78125 / nal_hrd=none / filler=0 / ip_ratio=1.40 / aq=1:1.00
Language                                 : Italian
Default                                  : Yes
Forced                                   : No
Color range                              : Limited
Color primaries                          : BT.709
Transfer characteristics                 : BT.709
Matrix coefficients                      : BT.709

Audio #1
ID                                       : 2
Format                                   : AAC LC
Format/Info                              : Advanced Audio Codec Low Complexity
Codec ID                                 : 2 / A_AAC-2
Duration                                 : 2 h 20 min
Bit rate                                 : 224 kb/s
Channel(s)                               : 6 channels
Channel layout                           : C L R Ls Rs LFE
Sampling rate                            : 48.0 kHz
Frame rate                               : 46.875 FPS (1024 SPF)
Compression mode                         : Lossy
Delay relative to video                  : 3 ms
Stream size                              : 224 MiB (8%)
Title                                    : ITA AAC 5.1 224 kbps
Language                                 : Italian
Default                                  : Yes
Forced                                   : No

Audio #2
ID                                       : 3
Format                                   : AAC LC
Format/Info                              : Advanced Audio Codec Low Complexity
Codec ID                                 : 2 / A_AAC-2
Duration                                 : 2 h 20 min
Bit rate                                 : 224 kb/s
Channel(s)                               : 6 channels
Channel layout                           : C L R Ls Rs LFE
Sampling rate                            : 48.0 kHz
Frame rate                               : 46.875 FPS (1024 SPF)
Compression mode                         : Lossy
Delay relative to video                  : 3 ms
Stream size                              : 224 MiB (8%)
Title                                    : ENG AAC 5.1 224 kbps
Language                                 : English
Default                                  : No
Forced                                   : No

Text #1
ID                                       : 4
Format                                   : UTF-8
Codec ID                                 : S_TEXT/UTF8
Codec ID/Info                            : UTF-8 Plain Text
Duration                                 : 2 h 19 min
Bit rate                                 : 39 b/s
Frame rate                               : 0.135 FPS
Count of elements                        : 1128
Stream size                              : 40.1 KiB (0%)
Title                                    : Italian Regular
Language                                 : Italian
Default                                  : No
Forced                                   : No

Text #2
ID                                       : 5
Format                                   : UTF-8
Codec ID                                 : S_TEXT/UTF8
Codec ID/Info                            : UTF-8 Plain Text
Duration                                 : 2 h 16 min
Bit rate                                 : 37 b/s
Frame rate                               : 0.135 FPS
Count of elements                        : 1110
Stream size                              : 37.5 KiB (0%)
Title                                    : English Regular
Language                                 : English
Default                                  : No
Forced                                   : No

Menu
00:00:00.000                             : Chapter 01
00:00:23.523                             : Chapter 03
00:01:50.068                             : Chapter 05
00:08:28.132                             : Chapter 07
00:11:23.349                             : Chapter 09
00:18:33.737                             : Chapter 11
00:23:40.460                             : Chapter 13
00:27:37.697                             : Chapter 15
00:29:12.959                             : Chapter 17
00:33:18.913                             : Chapter 19
00:35:45.434                             : Chapter 21
00:36:47.997                             : Chapter 23
00:38:21.465                             : Chapter 25
00:40:17.456                             : Chapter 27
00:41:18.601                             : Chapter 29
00:42:41.058                             : Chapter 31
00:48:01.587                             : Chapter 33
00:50:20.517                             : Chapter 35
00:52:24.933                             : Chapter 37
00:53:58.026                             : Chapter 39
00:56:26.466                             : Chapter 41
01:00:56.277                             : Chapter 43
01:01:56.546                             : Chapter 45
01:05:26.047                             : Chapter 47
01:07:40.598                             : Chapter 49
01:09:06.976                             : Chapter 51
01:10:52.998                             : Chapter 53
01:15:19.223                             : Chapter 55
01:19:15.250                             : Chapter 57
01:20:37.457                             : Chapter 59
01:24:20.597                             : Chapter 61
01:27:56.521                             : Chapter 63
01:29:57.391                             : Chapter 65
01:33:40.406                             : Chapter 67
01:36:39.460                             : Chapter 69
01:38:35.534                             : Chapter 71
01:41:24.369                             : Chapter 73
01:42:57.004                             : Chapter 75
01:48:18.783                             : Chapter 77
01:50:59.444                             : Chapter 79
01:52:44.007                             : Chapter 81
01:54:22.855                             : Chapter 83
01:56:54.924                             : Chapter 85
02:02:20.875                             : Chapter 87
02:03:32.863                             : Chapter 89
02:05:19.637                             : Chapter 91
02:07:37.107                             : Chapter 93
02:08:57.062                             : Chapter 95
02:12:04.958                             : Chapter 97
02:13:47.352                             : Chapter 99
02:20:05.605                             : Chapter 100
</pre>
</div>
<div class="messageTextEndMarker">&nbsp;</div>
</blockquote>
</article>]]></description>
                <author><![CDATA[Austin Zimmermann]]></author>
                </item>

                
                <item>
                <title><![CDATA[【Cinema Center】MOVIE - Rise of the Planet of the Apes (2011) (1080p BDRip X265 10bit DTS-HD MA 5.1: WEM) [TAoE]]]></title>
                <link><![CDATA[https://sharemania.us/threads/rise-of-the-planet-of-the-apes-2011-1080p-bdrip-x265-10bit-dts-hd-ma-5-1-wem-taoe.233496/]]></link>
                <description><![CDATA[<article>
<blockquote class="messageText SelectQuoteContainer ugc baseHtml">
<b>Release Name</b><br>
Rise of the Planet of the Apes (2011) (1080p BDRip x265 10bit DTS-HD MA 5.1 - WEM)<br>
<br>
<div class="bbCodeBlock bbCodeCode">
<div class="type">Code:</div>
<pre>General
Unique ID                                : 196775052258240629435465118451769300745 (0x94097F1D96ED83F94CD4EC79AE3C5709)
Complete name                            : Rise of the Planet of the Apes (2011) (1080p BDRip x265 10bit DTS-HD MA 5.1 - WEM).mkv
Format                                   : Matroska
Format version                           : Version 4
File size                                : 10.2 GiB
Duration                                 : 1 h 44 min
Overall bit rate mode                    : Variable
Overall bit rate                         : 14.0 Mb/s
Frame rate                               : 23.976 FPS
Movie name                               : Rise of the Planet of the Apes
Writing application                      : Lavf58.29.100
Writing library                          : Lavf58.29.100
ErrorDetectionType                       : Per level 1

Video
ID                                       : 1
Format                                   : HEVC
Format/Info                              : High Efficiency Video Coding
Format profile                           : Main 10@L4@Main
Codec ID                                 : V_MPEGH/ISO/HEVC
Duration                                 : 1 h 44 min
Bit rate                                 : 8 823 kb/s
Width                                    : 1 920 pixels
Height                                   : 816 pixels
Display aspect ratio                     : 2.35:1
Frame rate mode                          : Constant
Frame rate                               : 23.976 (24000/1001) FPS
Color space                              : YUV
Chroma subsampling                       : 4:2:0
Bit depth                                : 10 bits
Bits/(Pixel*Frame)                       : 0.235
Stream size                              : 6.47 GiB (63%)
Title                                    : Encoded by WEM for TAoE using Shinguru V1.9
Writing library                          : x265 3.2+35-acc5d16999e2:[Windows][GCC 9.2.1][64 bit] 10bit
Encoding settings                        : cpuid=1111039 / frame-threads=4 / numa-pools=24 / wpp / no-pmode / no-pme / no-psnr / no-ssim / log-level=2 / input-csp=1 / input-res=1920x816 / interlace=0 / total-frames=0 / level-idc=0 / high-tier=1 / uhd-bd=0 / ref=4 / no-allow-non-conformance / no-repeat-headers / annexb / no-aud / no-hrd / info / hash=0 / no-temporal-layers / open-gop / min-keyint=23 / keyint=250 / gop-lookahead=0 / bframes=8 / b-adapt=2 / b-pyramid / bframe-bias=0 / rc-lookahead=80 / lookahead-slices=4 / scenecut=40 / hist-scenecut=0 / radl=0 / no-splice / no-intra-refresh / ctu=64 / min-cu-size=8 / no-rect / no-amp / max-tu-size=32 / tu-inter-depth=1 / tu-intra-depth=1 / limit-tu=0 / rdoq-level=2 / dynamic-rd=0.00 / no-ssim-rd / signhide / no-tskip / nr-intra=0 / nr-inter=0 / no-constrained-intra / no-strong-intra-smoothing / max-merge=3 / limit-refs=3 / limit-modes / me=3 / subme=5 / merange=57 / temporal-mvp / no-frame-dup / no-hme / weightp / no-weightb / no-analyze-src-pics / deblock=0:0 / sao / no-sao-non-deblock / rd=4 / selective-sao=4 / no-early-skip / rskip / no-fast-intra / no-tskip-fast / no-cu-lossless / no-b-intra / no-splitrd-skip / rdpenalty=0 / psy-rd=1.30 / psy-rdoq=2.00 / no-rd-refine / no-lossless / cbqpoffs=0 / crqpoffs=0 / rc=crf / crf=18.0 / qcomp=0.60 / qpstep=4 / stats-write=0 / stats-read=0 / ipratio=1.40 / pbratio=1.30 / aq-mode=4 / aq-strength=1.10 / cutree / zone-count=0 / no-strict-cbr / qg-size=32 / no-rc-grain / qpmax=69 / qpmin=0 / no-const-vbv / sar=1 / overscan=0 / videoformat=5 / range=0 / colorprim=2 / transfer=2 / colormatrix=2 / chromaloc=0 / display-window=0 / cll=0,0 / min-luma=0 / max-luma=1023 / log2-max-poc-lsb=8 / vui-timing-info / vui-hrd-info / slices=1 / no-opt-qp-pps / no-opt-ref-list-length-pps / no-multi-pass-opt-rps / scenecut-bias=0.05 / hist-threshold=0.01 / no-opt-cu-delta-qp / no-aq-motion / no-hdr10 / no-hdr10-opt / no-dhdr10-opt / no-idr-recovery-sei / analysis-reuse-level=0 / analysis-save-reuse-level=0 / analysis-load-reuse-level=0 / scale-factor=0 / refine-intra=0 / refine-inter=0 / refine-mv=1 / refine-ctu-distortion=0 / no-limit-sao / ctu-info=0 / no-lowpass-dct / refine-analysis-type=0 / copy-pic=1 / max-ausize-factor=1.0 / no-dynamic-refine / no-single-sei / no-hevc-aq / no-svt / no-field / qp-adaptation-range=1.00 / no-scenecut-aware-qpconformance-window-offsets / right=0 / bottom=0
Default                                  : Yes
Forced                                   : No
Color range                              : Limited

Audio #1
ID                                       : 2
Format                                   : DTS XLL
Format/Info                              : Digital Theater Systems
Commercial name                          : DTS-HD Master Audio
Codec ID                                 : A_DTS
Duration                                 : 1 h 44 min
Bit rate mode                            : Variable
Bit rate                                 : 4 008 kb/s
Channel(s)                               : 6 channels
Channel layout                           : C L R Ls Rs LFE
Sampling rate                            : 48.0 kHz
Frame rate                               : 93.750 FPS (512 SPF)
Bit depth                                : 24 bits
Compression mode                         : Lossless
Stream size                              : 2.94 GiB (29%)
Language                                 : English
Default                                  : Yes
Forced                                   : No

Audio #2
ID                                       : 3
Format                                   : AC-3
Format/Info                              : Audio Coding 3
Commercial name                          : Dolby Digital
Codec ID                                 : A_AC3
Duration                                 : 1 h 44 min
Bit rate mode                            : Constant
Bit rate                                 : 224 kb/s
Channel(s)                               : 2 channels
Channel layout                           : L R
Sampling rate                            : 48.0 kHz
Frame rate                               : 31.250 FPS (1536 SPF)
Bit depth                                : 32 bits
Compression mode                         : Lossy
Stream size                              : 168 MiB (2%)
Title                                    : Commentary by Director Rupert Wyatt
Language                                 : English
Service kind                             : Complete Main
Default                                  : No
Forced                                   : No

Audio #3
ID                                       : 4
Format                                   : AC-3
Format/Info                              : Audio Coding 3
Commercial name                          : Dolby Digital
Codec ID                                 : A_AC3
Duration                                 : 1 h 44 min
Bit rate mode                            : Constant
Bit rate                                 : 224 kb/s
Channel(s)                               : 2 channels
Channel layout                           : L R
Sampling rate                            : 48.0 kHz
Frame rate                               : 31.250 FPS (1536 SPF)
Bit depth                                : 32 bits
Compression mode                         : Lossy
Stream size                              : 168 MiB (2%)
Title                                    : Commentary by Writers Rick Jaffa and Amanda Silver
Language                                 : English
Service kind                             : Complete Main
Default                                  : No
Forced                                   : No

Text #1
ID                                       : 5
Format                                   : PGS
Codec ID                                 : S_HDMV/PGS
Codec ID/Info                            : Picture based subtitle format used on BDs/HD-DVDs
Duration                                 : 55 min 50 s
Bit rate                                 : 265 b/s
Frame rate                               : 0.006 FPS
Count of elements                        : 20
Stream size                              : 109 KiB (0%)
Title                                    : Forced
Language                                 : English
Default                                  : No
Forced                                   : Yes

Text #2
ID                                       : 6
Format                                   : PGS
Codec ID                                 : S_HDMV/PGS
Codec ID/Info                            : Picture based subtitle format used on BDs/HD-DVDs
Duration                                 : 1 h 41 min
Bit rate                                 : 20.1 kb/s
Frame rate                               : 0.267 FPS
Count of elements                        : 1628
Stream size                              : 14.6 MiB (0%)
Title                                    : English
Language                                 : English
Default                                  : No
Forced                                   : No

Text #3
ID                                       : 7
Format                                   : PGS
Codec ID                                 : S_HDMV/PGS
Codec ID/Info                            : Picture based subtitle format used on BDs/HD-DVDs
Duration                                 : 1 h 41 min
Bit rate                                 : 9 406 b/s
Frame rate                               : 0.282 FPS
Count of elements                        : 1720
Stream size                              : 6.85 MiB (0%)
Title                                    : Arabic
Language                                 : Arabic
Default                                  : No
Forced                                   : No

Text #4
ID                                       : 8
Format                                   : PGS
Codec ID                                 : S_HDMV/PGS
Codec ID/Info                            : Picture based subtitle format used on BDs/HD-DVDs
Duration                                 : 1 h 43 min
Bit rate                                 : 17.0 kb/s
Frame rate                               : 0.223 FPS
Count of elements                        : 1386
Stream size                              : 12.6 MiB (0%)
Title                                    : Bulgarian
Language                                 : Bulgarian
Default                                  : No
Forced                                   : No

Text #5
ID                                       : 9
Format                                   : PGS
Codec ID                                 : S_HDMV/PGS
Codec ID/Info                            : Picture based subtitle format used on BDs/HD-DVDs
Duration                                 : 1 h 41 min
Bit rate                                 : 17.4 kb/s
Frame rate                               : 0.273 FPS
Count of elements                        : 1664
Stream size                              : 12.7 MiB (0%)
Title                                    : Chinese
Language                                 : Chinese
Default                                  : No
Forced                                   : No

Text #6
ID                                       : 10
Format                                   : PGS
Codec ID                                 : S_HDMV/PGS
Codec ID/Info                            : Picture based subtitle format used on BDs/HD-DVDs
Duration                                 : 1 h 41 min
Bit rate                                 : 19.2 kb/s
Frame rate                               : 0.271 FPS
Count of elements                        : 1654
Stream size                              : 14.0 MiB (0%)
Title                                    : Croatian
Language                                 : Croatian
Default                                  : No
Forced                                   : No

Text #7
ID                                       : 11
Format                                   : PGS
Codec ID                                 : S_HDMV/PGS
Codec ID/Info                            : Picture based subtitle format used on BDs/HD-DVDs
Duration                                 : 1 h 41 min
Bit rate                                 : 18.6 kb/s
Frame rate                               : 0.270 FPS
Count of elements                        : 1648
Stream size                              : 13.5 MiB (0%)
Title                                    : Czech
Language                                 : Czech
Default                                  : No
Forced                                   : No

Text #8
ID                                       : 12
Format                                   : PGS
Codec ID                                 : S_HDMV/PGS
Codec ID/Info                            : Picture based subtitle format used on BDs/HD-DVDs
Duration                                 : 1 h 41 min
Bit rate                                 : 17.6 kb/s
Frame rate                               : 0.224 FPS
Count of elements                        : 1366
Stream size                              : 12.8 MiB (0%)
Title                                    : Danish
Language                                 : Danish
Default                                  : No
Forced                                   : No

Text #9
ID                                       : 13
Format                                   : PGS
Codec ID                                 : S_HDMV/PGS
Codec ID/Info                            : Picture based subtitle format used on BDs/HD-DVDs
Duration                                 : 1 h 41 min
Bit rate                                 : 15.5 kb/s
Frame rate                               : 0.236 FPS
Count of elements                        : 1440
Stream size                              : 11.2 MiB (0%)
Title                                    : Dutch
Language                                 : Dutch
Default                                  : No
Forced                                   : No

Text #10
ID                                       : 14
Format                                   : PGS
Codec ID                                 : S_HDMV/PGS
Codec ID/Info                            : Picture based subtitle format used on BDs/HD-DVDs
Duration                                 : 1 h 41 min
Bit rate                                 : 19.3 kb/s
Frame rate                               : 0.271 FPS
Count of elements                        : 1652
Stream size                              : 14.0 MiB (0%)
Title                                    : Estonian
Language                                 : Estonian
Default                                  : No
Forced                                   : No

Text #11
ID                                       : 15
Format                                   : PGS
Codec ID                                 : S_HDMV/PGS
Codec ID/Info                            : Picture based subtitle format used on BDs/HD-DVDs
Duration                                 : 1 h 43 min
Bit rate                                 : 15.2 kb/s
Frame rate                               : 0.216 FPS
Count of elements                        : 1346
Stream size                              : 11.3 MiB (0%)
Title                                    : Finnish
Language                                 : Finnish
Default                                  : No
Forced                                   : No

Text #12
ID                                       : 16
Format                                   : PGS
Codec ID                                 : S_HDMV/PGS
Codec ID/Info                            : Picture based subtitle format used on BDs/HD-DVDs
Duration                                 : 1 h 43 min
Bit rate                                 : 14.0 kb/s
Frame rate                               : 0.218 FPS
Count of elements                        : 1358
Stream size                              : 10.4 MiB (0%)
Title                                    : French
Language                                 : French
Default                                  : No
Forced                                   : No

Text #13
ID                                       : 17
Format                                   : PGS
Codec ID                                 : S_HDMV/PGS
Codec ID/Info                            : Picture based subtitle format used on BDs/HD-DVDs
Duration                                 : 1 h 41 min
Bit rate                                 : 19.1 kb/s
Frame rate                               : 0.262 FPS
Count of elements                        : 1602
Stream size                              : 13.9 MiB (0%)
Title                                    : German
Language                                 : German
Default                                  : No
Forced                                   : No

Text #14
ID                                       : 18
Format                                   : PGS
Codec ID                                 : S_HDMV/PGS
Codec ID/Info                            : Picture based subtitle format used on BDs/HD-DVDs
Duration                                 : 1 h 41 min
Bit rate                                 : 17.2 kb/s
Frame rate                               : 0.188 FPS
Count of elements                        : 1150
Stream size                              : 12.5 MiB (0%)
Title                                    : Greek
Language                                 : Greek
Default                                  : No
Forced                                   : No

Text #15
ID                                       : 19
Format                                   : PGS
Codec ID                                 : S_HDMV/PGS
Codec ID/Info                            : Picture based subtitle format used on BDs/HD-DVDs
Duration                                 : 1 h 41 min
Bit rate                                 : 13.6 kb/s
Frame rate                               : 0.284 FPS
Count of elements                        : 1734
Stream size                              : 9.93 MiB (0%)
Title                                    : Hebrew
Language                                 : Hebrew
Default                                  : No
Forced                                   : No

Text #16
ID                                       : 20
Format                                   : PGS
Codec ID                                 : S_HDMV/PGS
Codec ID/Info                            : Picture based subtitle format used on BDs/HD-DVDs
Duration                                 : 1 h 41 min
Bit rate                                 : 16.1 kb/s
Frame rate                               : 0.273 FPS
Count of elements                        : 1666
Stream size                              : 11.7 MiB (0%)
Title                                    : Hindi
Language                                 : Hindi
Default                                  : No
Forced                                   : No

Text #17
ID                                       : 21
Format                                   : PGS
Codec ID                                 : S_HDMV/PGS
Codec ID/Info                            : Picture based subtitle format used on BDs/HD-DVDs
Duration                                 : 1 h 43 min
Bit rate                                 : 15.8 kb/s
Frame rate                               : 0.208 FPS
Count of elements                        : 1294
Stream size                              : 11.8 MiB (0%)
Title                                    : Hungarian
Language                                 : Hungarian
Default                                  : No
Forced                                   : No

Text #18
ID                                       : 22
Format                                   : PGS
Codec ID                                 : S_HDMV/PGS
Codec ID/Info                            : Picture based subtitle format used on BDs/HD-DVDs
Duration                                 : 1 h 41 min
Bit rate                                 : 20.3 kb/s
Frame rate                               : 0.271 FPS
Count of elements                        : 1652
Stream size                              : 14.8 MiB (0%)
Title                                    : Icelandic
Language                                 : Icelandic
Default                                  : No
Forced                                   : No

Text #19
ID                                       : 23
Format                                   : PGS
Codec ID                                 : S_HDMV/PGS
Codec ID/Info                            : Picture based subtitle format used on BDs/HD-DVDs
Duration                                 : 1 h 41 min
Bit rate                                 : 21.4 kb/s
Frame rate                               : 0.284 FPS
Count of elements                        : 1734
Stream size                              : 15.6 MiB (0%)
Title                                    : Indonesian
Language                                 : Indonesian
Default                                  : No
Forced                                   : No

Text #20
ID                                       : 24
Format                                   : PGS
Codec ID                                 : S_HDMV/PGS
Codec ID/Info                            : Picture based subtitle format used on BDs/HD-DVDs
Duration                                 : 1 h 41 min
Bit rate                                 : 19.1 kb/s
Frame rate                               : 0.270 FPS
Count of elements                        : 1650
Stream size                              : 13.9 MiB (0%)
Title                                    : Italian
Language                                 : Italian
Default                                  : No
Forced                                   : No

Text #21
ID                                       : 25
Format                                   : PGS
Codec ID                                 : S_HDMV/PGS
Codec ID/Info                            : Picture based subtitle format used on BDs/HD-DVDs
Duration                                 : 1 h 35 min
Bit rate                                 : 12.3 kb/s
Frame rate                               : 0.248 FPS
Count of elements                        : 1417
Stream size                              : 8.39 MiB (0%)
Title                                    : Japanese
Language                                 : Japanese
Default                                  : No
Forced                                   : No

Text #22
ID                                       : 26
Format                                   : PGS
Codec ID                                 : S_HDMV/PGS
Codec ID/Info                            : Picture based subtitle format used on BDs/HD-DVDs
Duration                                 : 1 h 43 min
Bit rate                                 : 10.4 kb/s
Frame rate                               : 0.277 FPS
Count of elements                        : 1724
Stream size                              : 7.70 MiB (0%)
Title                                    : Korean
Language                                 : Korean
Default                                  : No
Forced                                   : No

Text #23
ID                                       : 27
Format                                   : PGS
Codec ID                                 : S_HDMV/PGS
Codec ID/Info                            : Picture based subtitle format used on BDs/HD-DVDs
Duration                                 : 1 h 41 min
Bit rate                                 : 15.6 kb/s
Frame rate                               : 0.255 FPS
Count of elements                        : 1558
Stream size                              : 11.3 MiB (0%)
Title                                    : Latvian
Language                                 : Latvian
Default                                  : No
Forced                                   : No

Text #24
ID                                       : 28
Format                                   : PGS
Codec ID                                 : S_HDMV/PGS
Codec ID/Info                            : Picture based subtitle format used on BDs/HD-DVDs
Duration                                 : 1 h 41 min
Bit rate                                 : 18.9 kb/s
Frame rate                               : 0.286 FPS
Count of elements                        : 1748
Stream size                              : 13.8 MiB (0%)
Title                                    : Lithuanian
Language                                 : Lithuanian
Default                                  : No
Forced                                   : No

Text #25
ID                                       : 29
Format                                   : PGS
Codec ID                                 : S_HDMV/PGS
Codec ID/Info                            : Picture based subtitle format used on BDs/HD-DVDs
Duration                                 : 1 h 41 min
Bit rate                                 : 22.8 kb/s
Frame rate                               : 0.270 FPS
Count of elements                        : 1650
Stream size                              : 16.6 MiB (0%)
Title                                    : Malay
Language                                 : Malay
Default                                  : No
Forced                                   : No

Text #26
ID                                       : 30
Format                                   : PGS
Codec ID                                 : S_HDMV/PGS
Codec ID/Info                            : Picture based subtitle format used on BDs/HD-DVDs
Duration                                 : 1 h 41 min
Bit rate                                 : 16.9 kb/s
Frame rate                               : 0.274 FPS
Count of elements                        : 1674
Stream size                              : 12.3 MiB (0%)
Title                                    : Norwegian
Language                                 : Norwegian
Default                                  : No
Forced                                   : No

Text #27
ID                                       : 31
Format                                   : PGS
Codec ID                                 : S_HDMV/PGS
Codec ID/Info                            : Picture based subtitle format used on BDs/HD-DVDs
Duration                                 : 1 h 41 min
Bit rate                                 : 13.9 kb/s
Frame rate                               : 0.191 FPS
Count of elements                        : 1168
Stream size                              : 10.1 MiB (0%)
Title                                    : Polish
Language                                 : Polish
Default                                  : No
Forced                                   : No

Text #28
ID                                       : 32
Format                                   : PGS
Codec ID                                 : S_HDMV/PGS
Codec ID/Info                            : Picture based subtitle format used on BDs/HD-DVDs
Duration                                 : 1 h 41 min
Bit rate                                 : 20.0 kb/s
Frame rate                               : 0.271 FPS
Count of elements                        : 1652
Stream size                              : 14.5 MiB (0%)
Title                                    : Portuguese
Language                                 : Portuguese
Default                                  : No
Forced                                   : No

Text #29
ID                                       : 33
Format                                   : PGS
Codec ID                                 : S_HDMV/PGS
Codec ID/Info                            : Picture based subtitle format used on BDs/HD-DVDs
Duration                                 : 1 h 43 min
Bit rate                                 : 17.7 kb/s
Frame rate                               : 0.237 FPS
Count of elements                        : 1476
Stream size                              : 13.2 MiB (0%)
Title                                    : Romanian
Language                                 : Romanian
Default                                  : No
Forced                                   : No

Text #30
ID                                       : 34
Format                                   : PGS
Codec ID                                 : S_HDMV/PGS
Codec ID/Info                            : Picture based subtitle format used on BDs/HD-DVDs
Duration                                 : 1 h 41 min
Bit rate                                 : 19.5 kb/s
Frame rate                               : 0.272 FPS
Count of elements                        : 1658
Stream size                              : 14.2 MiB (0%)
Title                                    : Russian
Language                                 : Russian
Default                                  : No
Forced                                   : No

Text #31
ID                                       : 35
Format                                   : PGS
Codec ID                                 : S_HDMV/PGS
Codec ID/Info                            : Picture based subtitle format used on BDs/HD-DVDs
Duration                                 : 1 h 41 min
Bit rate                                 : 17.3 kb/s
Frame rate                               : 0.273 FPS
Count of elements                        : 1664
Stream size                              : 12.6 MiB (0%)
Title                                    : Serbian
Language                                 : Serbian
Default                                  : No
Forced                                   : No

Text #32
ID                                       : 36
Format                                   : PGS
Codec ID                                 : S_HDMV/PGS
Codec ID/Info                            : Picture based subtitle format used on BDs/HD-DVDs
Duration                                 : 1 h 41 min
Bit rate                                 : 17.3 kb/s
Frame rate                               : 0.271 FPS
Count of elements                        : 1654
Stream size                              : 12.6 MiB (0%)
Title                                    : Slovenian
Language                                 : Slovenian
Default                                  : No
Forced                                   : No

Text #33
ID                                       : 37
Format                                   : PGS
Codec ID                                 : S_HDMV/PGS
Codec ID/Info                            : Picture based subtitle format used on BDs/HD-DVDs
Duration                                 : 1 h 43 min
Bit rate                                 : 19.9 kb/s
Frame rate                               : 0.261 FPS
Count of elements                        : 1624
Stream size                              : 14.8 MiB (0%)
Title                                    : Spanish
Language                                 : Spanish
Default                                  : No
Forced                                   : No

Text #34
ID                                       : 38
Format                                   : PGS
Codec ID                                 : S_HDMV/PGS
Codec ID/Info                            : Picture based subtitle format used on BDs/HD-DVDs
Duration                                 : 1 h 43 min
Bit rate                                 : 15.4 kb/s
Frame rate                               : 0.185 FPS
Count of elements                        : 1150
Stream size                              : 11.4 MiB (0%)
Title                                    : Swedish
Language                                 : Swedish
Default                                  : No
Forced                                   : No

Text #35
ID                                       : 39
Format                                   : PGS
Codec ID                                 : S_HDMV/PGS
Codec ID/Info                            : Picture based subtitle format used on BDs/HD-DVDs
Duration                                 : 1 h 41 min
Bit rate                                 : 20.8 kb/s
Frame rate                               : 0.273 FPS
Count of elements                        : 1666
Stream size                              : 15.1 MiB (0%)
Title                                    : Tamil
Language                                 : Tamil
Default                                  : No
Forced                                   : No

Text #36
ID                                       : 40
Format                                   : PGS
Codec ID                                 : S_HDMV/PGS
Codec ID/Info                            : Picture based subtitle format used on BDs/HD-DVDs
Duration                                 : 1 h 41 min
Bit rate                                 : 19.0 kb/s
Frame rate                               : 0.273 FPS
Count of elements                        : 1666
Stream size                              : 13.8 MiB (0%)
Title                                    : Telugu
Language                                 : Telugu
Default                                  : No
Forced                                   : No

Text #37
ID                                       : 41
Format                                   : PGS
Codec ID                                 : S_HDMV/PGS
Codec ID/Info                            : Picture based subtitle format used on BDs/HD-DVDs
Duration                                 : 1 h 43 min
Bit rate                                 : 15.2 kb/s
Frame rate                               : 0.268 FPS
Count of elements                        : 1668
Stream size                              : 11.3 MiB (0%)
Title                                    : Thai
Language                                 : Thai
Default                                  : No
Forced                                   : No

Text #38
ID                                       : 42
Format                                   : PGS
Codec ID                                 : S_HDMV/PGS
Codec ID/Info                            : Picture based subtitle format used on BDs/HD-DVDs
Duration                                 : 1 h 41 min
Bit rate                                 : 21.0 kb/s
Frame rate                               : 0.280 FPS
Count of elements                        : 1710
Stream size                              : 15.3 MiB (0%)
Title                                    : Turkish
Language                                 : Turkish
Default                                  : No
Forced                                   : No

Text #39
ID                                       : 43
Format                                   : PGS
Codec ID                                 : S_HDMV/PGS
Codec ID/Info                            : Picture based subtitle format used on BDs/HD-DVDs
Duration                                 : 1 h 41 min
Bit rate                                 : 19.7 kb/s
Frame rate                               : 0.273 FPS
Count of elements                        : 1666
Stream size                              : 14.3 MiB (0%)
Title                                    : Ukrainian
Language                                 : Ukrainian
Default                                  : No
Forced                                   : No

Text #40
ID                                       : 44
Format                                   : PGS
Codec ID                                 : S_HDMV/PGS
Codec ID/Info                            : Picture based subtitle format used on BDs/HD-DVDs
Duration                                 : 1 h 43 min
Bit rate                                 : 18.5 kb/s
Frame rate                               : 0.265 FPS
Count of elements                        : 1650
Stream size                              : 13.8 MiB (0%)
Title                                    : Vietnamese
Language                                 : Vietnamese
Default                                  : No
Forced                                   : No

Menu
00:00:00.000                             : Chapter 1
00:05:24.407                             : Chapter 2
00:09:17.974                             : Chapter 3
00:14:19.066                             : Chapter 4
00:18:07.544                             : Chapter 5
00:20:03.785                             : Chapter 6
00:22:38.148                             : Chapter 7
00:25:17.015                             : Chapter 8
00:29:42.655                             : Chapter 9
00:33:38.266                             : Chapter 10
00:38:29.098                             : Chapter 11
00:41:12.595                             : Chapter 12
00:45:19.007                             : Chapter 13
00:48:50.177                             : Chapter 14
00:52:56.631                             : Chapter 15
00:57:30.280                             : Chapter 16
00:59:26.729                             : Chapter 17
01:01:30.144                             : Chapter 18
01:05:03.608                             : Chapter 19
01:06:20.267                             : Chapter 20
01:09:34.962                             : Chapter 21
01:11:15.688                             : Chapter 22
01:15:44.122                             : Chapter 23
01:18:29.204                             : Chapter 24
01:23:09.275                             : Chapter 25
01:27:50.390                             : Chapter 26
01:33:00.366                             : Chapter 27
01:37:08.948                             : Chapter 28
01:44:56.206                             : Chapter 29
</pre>
</div>
<div class="messageTextEndMarker">&nbsp;</div>
</blockquote>
</article>]]></description>
                <author><![CDATA[Austin Zimmermann]]></author>
                </item>

                </channel></rss>